Coordinates
version=1
nRows=12
nColumns=34
inDegrees=yes

Units are S.I. units (second, meters, Newtons, ...)
If the header above contains a line with 'inDegrees', this indicates whether rotational values are in degrees (yes) or radians (no).

endheader
time	pelvis_tilt	pelvis_list	pelvis_rotation	pelvis_tx	pelvis_ty	pelvis_tz	hip_flexion_r	hip_adduction_r	hip_rotation_r	knee_angle_r	ankle_angle_r	subtalar_angle_r	mtp_angle_r	hip_flexion_l	hip_adduction_l	hip_rotation_l	knee_angle_l	ankle_angle_l	subtalar_angle_l	mtp_angle_l	lumbar_extension	lumbar_bending	lumbar_rotation	arm_flex_r	arm_add_r	arm_rot_r	elbow_flex_r	pro_sup_r	arm_flex_l	arm_add_l	arm_rot_l	elbow_flex_l	pro_sup_l
      1.70000000	      1.39105833	      0.85201749	      7.13214607	      0.22905604	      0.89704346	      0.24430926	     24.05214279	      0.11345081	     -9.20966426	    -13.62880306	     -5.37686680	     -5.68082708	     11.20406766	    -21.26957575	     -0.26046631	     -0.50325122	    -16.22528197	      0.98096127	     11.31907226	     17.57072642	     -5.32651941	      1.50538321	    -11.93032076	    -12.74112530	    -14.19271531	      3.71641719	      9.49029533	     90.00000000	      3.44212674	    -17.88506031	     18.56528936	     33.27998470	     90.00000000
      1.71000000	      1.16230586	     -0.11050298	      6.83099568	      0.24444948	      0.89661639	      0.24565761	     24.73478828	      1.29849085	     -8.30640540	    -15.95352474	     -6.51507753	     -7.21978880	     11.49390806	    -20.37508394	     -1.40231284	     -1.49950839	    -18.56328339	     -1.34273425	     11.90043645	     19.18214144	     -4.73073723	      2.61876411	    -11.43511778	    -12.54826527	    -14.38260629	      4.16697235	      9.08056437	     90.00000000	      3.06063015	    -17.42396036	     18.01192568	     32.75566983	     90.00000000
      1.72000000	      1.01614622	     -0.99425580	      6.53375622	      0.25978457	      0.89646724	      0.24675748	     25.30458547	      2.42783095	     -7.39485184	    -18.18123158	     -7.48647040	     -8.38318502	     14.22310940	    -19.53885619	     -2.35704339	     -2.08527512	    -20.60864271	     -6.48370656	     10.05056013	     40.11501364	     -4.29943821	      3.64570622	    -10.95496951	    -12.46206707	    -14.64144734	      5.62030558	      9.09374877	     90.00000000	      2.46468973	    -17.02900566	     17.51763764	     32.86815044	     90.00000000
      1.73000000	      0.97997766	     -1.88181672	      6.25542788	      0.27494203	      0.89658818	      0.24779392	     25.50304748	      3.56819436	     -6.64968463	    -19.86617504	     -7.56103600	     -8.02658356	     14.26958608	    -18.50837006	     -3.38947981	     -2.53290108	    -23.34072471	     -9.55349204	      9.37775070	     40.03185529	     -4.03627399	      4.71269382	    -10.48061575	    -12.35537629	    -14.88733015	      5.58422556	      9.41081666	     90.00000000	      1.92870788	    -16.68541422	     17.20465405	     32.84768834	     90.00000000
      1.74000000	      0.81753760	     -2.70489060	      5.92778635	      0.29020831	      0.89661553	      0.24909142	     25.57489201	      4.72430409	     -5.98900570	    -21.18748292	     -7.57099902	     -8.39140164	     13.93393157	    -17.23254165	     -4.38016911	     -2.90032797	    -26.16881844	    -12.93108684	      8.88414105	     40.19368299	     -3.61505771	      5.64148533	     -9.98000139	    -12.21611509	    -15.10452559	      5.72672695	      9.62949747	     90.00000000	      1.30722159	    -16.38286548	     16.91534700	     32.81984934	     90.00000000
      1.75000000	      0.74064066	     -3.47912480	      5.64091996	      0.30514691	      0.89685142	      0.25058345	     25.37154542	      5.85668661	     -5.55269531	    -22.26428468	     -6.73957140	     -9.13666348	     13.69014290	    -15.84936565	     -5.35424756	     -3.12096451	    -29.22794452	    -16.00671174	      8.33327977	     40.30284625	     -3.36805368	      6.48240034	     -9.51976045	    -11.97472037	    -15.29029017	      5.83264359	      9.94611883	     90.00000000	      0.73618669	    -16.14035654	     16.59363626	     32.75012127	     90.00000000
      1.76000000	      0.69606457	     -4.12658142	      5.38523281	      0.31970822	      0.89732555	      0.25192306	     24.92503677	      6.85819124	     -5.14829024	    -23.00220746	     -5.61127636	     -9.58537524	     13.62005497	    -14.36871168	     -6.15793792	     -3.03478949	    -32.38738648	    -18.86528168	      7.52061021	     40.18430354	     -3.23327471	      7.20386523	     -9.08055764	    -11.72531059	    -15.46364099	      5.93419918	     10.46893711	     90.00000000	      0.18234145	    -15.95947230	     16.35750893	     32.78874111	     90.00000000
      1.77000000	      0.33612755	     -4.86638329	      5.17697330	      0.33383532	      0.89770079	      0.25345118	     24.60412730	      7.92067347	     -4.75607231	    -23.34323204	     -4.58097617	     -9.81790564	     10.77927706	    -12.22550961	     -7.03433577	     -2.78091008	    -35.92090610	    -21.47916821	      5.97416452	     38.64682139	     -2.78789779	      7.95302687	     -8.72922445	    -11.22573232	    -15.63212409	      7.20650066	     10.51632547	     90.00000000	     -0.34751810	    -15.76355129	     16.08909813	     32.62909519	     90.00000000
      1.78000000	      0.49486824	     -5.58924394	      5.18639702	      0.34768446	      0.89905703	      0.25427645	     23.50105164	      8.84693495	     -4.80257921	    -23.27051872	     -3.56400949	     -9.64696625	     10.79594886	    -10.48348716	     -7.88255706	     -2.28591259	    -39.36417982	    -23.79832838	      4.47707731	     37.75746618	     -2.97581898	      8.79941041	     -8.42823043	    -10.87590463	    -15.85597660	      7.04541593	     11.27517157	     90.00000000	     -0.65095235	    -15.52342007	     16.00927301	     32.42325050	     90.00000000
      1.79000000	      0.54967466	     -6.39745378	      5.38565307	      0.36114337	      0.90043086	      0.25464797	     22.47690182	      9.74138937	     -5.13404852	    -23.07898379	     -2.56956034	     -9.24570919	     10.74295141	     -8.36782690	     -8.75689301	     -1.51774187	    -42.96000637	    -24.69522003	      1.57308568	     36.44223206	     -3.06185507	      9.74341077	     -8.23546715	    -10.50590655	    -16.08901566	      6.80841776	     12.06879376	     90.00000000	     -0.82968152	    -15.24421518	     16.10521326	     31.96365542	     90.00000000
      1.80000000	      0.63710299	     -6.83294520	      5.67029547	      0.37424070	      0.90213153	      0.25448762	     21.41353800	     10.15880045	     -5.65345937	    -22.99521394	     -0.81297848	     -8.08377448	      7.80058840	     -6.13047833	     -9.06708173	     -0.31948985	    -46.73597592	    -22.47591141	      0.13107700	     24.35057700	     -3.23165394	     10.32716998	     -7.98699413	    -10.29093639	    -16.28264911	      5.89165568	     13.27036479	     90.00000000	     -0.62525806	    -15.01738366	     17.07749353	     30.98410548	     90.00000000
      1.81000000	      0.88241771	     -7.27090892	      5.93651649	      0.38720160	      0.90424869	      0.25452375	     19.96565107	     10.72791953	     -5.81914840	    -22.43819018	      0.14916440	     -7.86222622	      7.95577846	     -4.11325665	     -9.37057798	      0.71919712	    -49.90651568	    -21.16360461	     -1.18549827	     24.48538221	     -3.62670052	     10.89224825	     -7.79022393	     -9.82631852	    -16.47926291	      5.78692941	     14.17752686	     90.00000000	     -0.73163378	    -14.84114974	     17.12522922	     30.66484687	     90.00000000
